<mxfile host="app.diagrams.net" modified="2022-06-03T10:07:01.948Z" agent="5.0 (X11)" etag="eIl0lOkfGXLKthzVtLFK" version="19.0.0" type="github">
  <diagram id="8moAS61EBwtthzhN6-V3" name="Page-1">
    <mxGraphModel dx="1662" dy="793" grid="1" gridSize="10" guides="1" tooltips="1" connect="1" arrows="1" fold="1" page="1" pageScale="1" pageWidth="827" pageHeight="1169" math="0" shadow="0">
      <root>
        <mxCell id="0" />
        <mxCell id="1" parent="0" />
        <mxCell id="kx3Ie3QOy20wnRRrD1VL-1" value="Docker Compose" style="swimlane;" parent="1" vertex="1">
          <mxGeometry x="30" y="30" width="340" height="160" as="geometry" />
        </mxCell>
        <mxCell id="kx3Ie3QOy20wnRRrD1VL-2" value="Container&#xa;Registry" style="sketch=0;html=1;verticalAlign=top;labelPosition=center;verticalLabelPosition=bottom;align=center;spacingTop=-6;fontSize=11;fontStyle=1;fontColor=#999999;shape=image;aspect=fixed;imageAspect=0;image=data:image/svg+xml,PHN2ZyB4bWxucz0iaHR0cDovL3d3dy53My5vcmcvMjAwMC9zdmciIHhtbG5zOnY9Imh0dHBzOi8vdmVjdGEuaW8vbmFubyIgd2lkdGg9IjM3Ny4xNTkzMDIxNjAyNjMwNSIgaGVpZ2h0PSIzMzYuMTYyNDk5MDAzMzEwOCIgdmlld0JveD0iLTAuMDU4MDAwMDA1NzgxNjUwNTQgMC4xMTI5OTk5OTgwMzMwNDY3MiA5OS43OTAwMDA5MTU1MjczNCA4OC45NDMwMDA3OTM0NTcwMyI+JiN4YTs8c3R5bGUgdHlwZT0idGV4dC9jc3MiPiYjeGE7CS5zdDB7ZmlsbDojNjY5ZGY2O30mI3hhOwkuc3Qxe2ZpbGw6I2FlY2JmYTt9JiN4YTsJLnN0MntmaWxsOiM0Mjg1ZjQ7fSYjeGE7PC9zdHlsZT4mI3hhOwk8cGF0aCBjbGFzcz0ic3QwIiBkPSJNNTMuMjQzIDYyLjA5VjQ3LjA5NGwxMy4yMDEgOC40MTZ2MTUuMDM4em0tMzMuMDIxIDBWNDcuMDk0bDEzLjIwMSA4LjQxNnYxNS4wMzh6bTE2LjUxMS0zMi4yODVWMTQuODFsMTMuMjAxIDguNDE2djE1LjAzOHptNjIuOTk5IDMzLjk2VjI1LjQwM2wtOS41NjItMS44ODR2NDIuMTMxem0tOTkuNzg4IDBWMjUuNDAzbDkuNTYyLTEuODg0djQyLjEzMXoiLz4mI3hhOwk8cGF0aCBjbGFzcz0ic3QxIiBkPSJNNTMuMTg1IDQ3LjA5NGwxMy4yNTgtOC4yODcgMTMuMDE2IDguMjM0LTEzLjAxNiA4LjQ2OXptLTMzLjAyMSAwbDEzLjI1OC04LjI4NyAxMy4wMTYgOC4yMzQtMTMuMDE2IDguNDY5ek0zNi42NzUgMTQuODFsMTMuMjU4LTguMjg3IDEzLjAxNiA4LjIzNC0xMy4wMTYgOC40Njl6bTYzLjA1NiA0OC45NTZ2MTIuMjE3TDc3LjAxIDg5LjA1NVY3Ny43NTJ6bTAtMzguMzYzVjEzLjE4Nkw3Ny4wMS4xMTN2MTEuMzAzek0tLjA1OCA2My43NjZ2MTIuMjE3bDIyLjcyMSAxMy4wNzNWNzcuNzUyem0wLTM4LjM2M1YxMy4xODZMMjIuNjYzLjExM3YxMS4zMDN6Ii8+JiN4YTsJPHBhdGggY2xhc3M9InN0MiIgZD0iTTY2LjQ0NCA3MC41NDdWNTUuNTFsMTMuMDE2LTguNDY5djE1LjR6bS0zMy4wMjEgMFY1NS41MWwxMy4wMTYtOC40Njl2MTUuNHptMTYuNTExLTMyLjI4NVYyMy4yMjVsMTMuMDE2LTguNDY5djE1LjR6bTQ5Ljc5OCAyNS41MDNsLTkuNTYyIDUuODh2LTMuOTk2em0wLTM4LjM2M2wtOS41NjItNS44OHYzLjk5NnpNLS4wNTggNjMuNzY2bDkuNTYyIDUuODh2LTMuOTk2em0wLTM4LjM2M2w5LjU2Mi01Ljg4djMuOTk2eiIvPiYjeGE7PC9zdmc+;" parent="kx3Ie3QOy20wnRRrD1VL-1" vertex="1">
          <mxGeometry x="240" y="47.5" width="70" height="70" as="geometry" />
        </mxCell>
        <mxCell id="kx3Ie3QOy20wnRRrD1VL-5" style="edgeStyle=orthogonalEdgeStyle;rounded=0;orthogonalLoop=1;jettySize=auto;html=1;entryX=0;entryY=0.5;entryDx=0;entryDy=0;" parent="kx3Ie3QOy20wnRRrD1VL-1" source="kx3Ie3QOy20wnRRrD1VL-4" target="kx3Ie3QOy20wnRRrD1VL-2" edge="1">
          <mxGeometry relative="1" as="geometry" />
        </mxCell>
        <mxCell id="kx3Ie3QOy20wnRRrD1VL-6" value="&lt;div&gt;Push container&lt;/div&gt;&lt;div&gt;images&lt;/div&gt;" style="edgeLabel;html=1;align=center;verticalAlign=middle;resizable=0;points=[];" parent="kx3Ie3QOy20wnRRrD1VL-5" vertex="1" connectable="0">
          <mxGeometry x="-0.2628" y="-1" relative="1" as="geometry">
            <mxPoint x="22" y="17" as="offset" />
          </mxGeometry>
        </mxCell>
        <mxCell id="kx3Ie3QOy20wnRRrD1VL-4" value="&lt;div&gt;Docker-Compose&lt;/div&gt;&lt;div&gt;Build&lt;/div&gt;" style="sketch=0;html=1;verticalAlign=top;labelPosition=center;verticalLabelPosition=bottom;align=center;spacingTop=-6;fontSize=11;fontStyle=1;fontColor=#999999;shape=image;aspect=fixed;imageAspect=0;image=data:image/svg+xml,PHN2ZyB4bWxucz0iaHR0cDovL3d3dy53My5vcmcvMjAwMC9zdmciIHhtbG5zOnY9Imh0dHBzOi8vdmVjdGEuaW8vbmFubyIgd2lkdGg9IjE3LjMyOTk5OTkyMzcwNjA1NSIgaGVpZ2h0PSIxOS42MTAwMDA2MTAzNTE1NjIiIHZpZXdCb3g9IjAgMCAxNy4zMjk5OTk5MjM3MDYwNTUgMTkuNjEwMDAwNjEwMzUxNTYyIj4mI3hhOwk8c3R5bGUgdHlwZT0idGV4dC9jc3MiPiYjeGE7CS5zdDB7ZmlsbDojNDI4NWY0O30mI3hhOwkuc3Qxe2ZpbGw6IzY2OWRmNjt9JiN4YTsJLnN0MntmaWxsOiNhZWNiZmE7fSYjeGE7CTwvc3R5bGU+JiN4YTsJPHBhdGggY2xhc3M9InN0MCIgZD0iTTEyLjE4IDcuOThMMTEgNy4yOWwtMy41MiA2LjEgMS4xOC42OCAzLjUyLTIuMDN6IiBmaWxsPSIjNDI4NWY0Ii8+JiN4YTsJPHBhdGggY2xhc3M9InN0MSIgZD0iTTYuMzIgMTIuNzJsMy41My02LjA5LTEuMTktLjY5LTMuNTIgMi4wNHY0LjA2eiIgZmlsbD0iIzY2OWRmNiIvPiYjeGE7CTxwYXRoIGNsYXNzPSJzdDIiIGQ9Ik0zLjc1IDcuOThMMCA1LjgxdjkuMmw3Ljk3IDQuNnYtNC4zM2wtNC4yMi0yLjQ0em05LjEzLTEuMmwzLjc2LTIuMTdMOC42NiAwIC42OCA0LjYxbDMuNzYgMi4xNyA0LjIyLTIuNDR6TTkuMzUgMTkuNjFsNy45OC00LjZ2LTkuMmwtMy43NiAyLjE3djQuODZsLTQuMjIgMi40NHoiIGZpbGw9IiNhZWNiZmEiLz4mI3hhOzwvc3ZnPg==;" parent="kx3Ie3QOy20wnRRrD1VL-1" vertex="1">
          <mxGeometry x="30" y="45" width="64.29" height="75" as="geometry" />
        </mxCell>
        <mxCell id="kx3Ie3QOy20wnRRrD1VL-14" value="Kubernetes" style="swimlane;" parent="1" vertex="1">
          <mxGeometry x="30" y="260" width="750" height="350" as="geometry" />
        </mxCell>
        <mxCell id="2azZoAqfirDOiCX57xzy-5" value="Elixir Deployment" style="swimlane;horizontal=0;" vertex="1" parent="kx3Ie3QOy20wnRRrD1VL-14">
          <mxGeometry x="10" y="30" width="270" height="260" as="geometry" />
        </mxCell>
        <mxCell id="2azZoAqfirDOiCX57xzy-7" value="Pod 1" style="aspect=fixed;html=1;points=[];align=center;image;fontSize=12;image=img/lib/azure2/cxp/Elixir_Purple.svg;" vertex="1" parent="2azZoAqfirDOiCX57xzy-5">
          <mxGeometry x="50" y="20" width="49" height="68" as="geometry" />
        </mxCell>
        <mxCell id="2azZoAqfirDOiCX57xzy-8" value="Pod 2" style="aspect=fixed;html=1;points=[];align=center;image;fontSize=12;image=img/lib/azure2/cxp/Elixir_Purple.svg;" vertex="1" parent="2azZoAqfirDOiCX57xzy-5">
          <mxGeometry x="200" y="20" width="49" height="68" as="geometry" />
        </mxCell>
        <mxCell id="2azZoAqfirDOiCX57xzy-9" value="&lt;div&gt;Pod 3&lt;/div&gt;" style="aspect=fixed;html=1;points=[];align=center;image;fontSize=12;image=img/lib/azure2/cxp/Elixir_Purple.svg;" vertex="1" parent="2azZoAqfirDOiCX57xzy-5">
          <mxGeometry x="120" y="160" width="49" height="68" as="geometry" />
        </mxCell>
        <mxCell id="2azZoAqfirDOiCX57xzy-11" value="&lt;div&gt;&lt;br&gt;&lt;/div&gt;&lt;div&gt;&lt;br&gt;&lt;/div&gt;&lt;div&gt;&lt;br&gt;&lt;/div&gt;&lt;div&gt;&lt;br&gt;&lt;/div&gt;&lt;div&gt;&lt;br&gt;&lt;/div&gt;&lt;div&gt;&lt;br&gt;&lt;/div&gt;&lt;div&gt;&lt;br&gt;&lt;/div&gt;&lt;div&gt;Elixir&lt;/div&gt;&lt;div&gt;Headless&lt;/div&gt;&lt;div&gt;Service&lt;br&gt;&lt;/div&gt;" style="sketch=0;html=1;dashed=0;whitespace=wrap;fillColor=#2875E2;strokeColor=#ffffff;points=[[0.005,0.63,0],[0.1,0.2,0],[0.9,0.2,0],[0.5,0,0],[0.995,0.63,0],[0.72,0.99,0],[0.5,1,0],[0.28,0.99,0]];shape=mxgraph.kubernetes.icon;prIcon=svc" vertex="1" parent="kx3Ie3QOy20wnRRrD1VL-14">
          <mxGeometry x="334" y="190" width="50" height="48" as="geometry" />
        </mxCell>
        <mxCell id="2azZoAqfirDOiCX57xzy-13" value="" style="endArrow=classic;html=1;rounded=0;exitX=1;exitY=0.5;exitDx=0;exitDy=0;entryX=0.5;entryY=0;entryDx=0;entryDy=0;entryPerimeter=0;" edge="1" parent="kx3Ie3QOy20wnRRrD1VL-14" source="2azZoAqfirDOiCX57xzy-5" target="2azZoAqfirDOiCX57xzy-11">
          <mxGeometry width="50" height="50" relative="1" as="geometry">
            <mxPoint x="360" y="100" as="sourcePoint" />
            <mxPoint x="410" y="50" as="targetPoint" />
            <Array as="points">
              <mxPoint x="360" y="160" />
            </Array>
          </mxGeometry>
        </mxCell>
        <mxCell id="2azZoAqfirDOiCX57xzy-15" value="&lt;div&gt;Pod discovery&lt;/div&gt;&lt;div&gt;via DNS&lt;/div&gt;" style="edgeLabel;html=1;align=center;verticalAlign=middle;resizable=0;points=[];" vertex="1" connectable="0" parent="2azZoAqfirDOiCX57xzy-13">
          <mxGeometry x="0.1089" relative="1" as="geometry">
            <mxPoint x="-7" y="-20" as="offset" />
          </mxGeometry>
        </mxCell>
        <mxCell id="2azZoAqfirDOiCX57xzy-16" value="&lt;div&gt;&lt;br&gt;&lt;/div&gt;&lt;div&gt;&lt;br&gt;&lt;/div&gt;&lt;div&gt;&lt;br&gt;&lt;/div&gt;&lt;div&gt;&lt;br&gt;&lt;/div&gt;&lt;div&gt;&lt;br&gt;&lt;/div&gt;&lt;div&gt;&lt;br&gt;&lt;/div&gt;&lt;div&gt;HTTP&lt;/div&gt;&lt;div&gt;Ingress&lt;br&gt;&lt;/div&gt;" style="sketch=0;html=1;dashed=0;whitespace=wrap;fillColor=#2875E2;strokeColor=#ffffff;points=[[0.005,0.63,0],[0.1,0.2,0],[0.9,0.2,0],[0.5,0,0],[0.995,0.63,0],[0.72,0.99,0],[0.5,1,0],[0.28,0.99,0]];shape=mxgraph.kubernetes.icon;prIcon=ep" vertex="1" parent="kx3Ie3QOy20wnRRrD1VL-14">
          <mxGeometry x="334" y="30" width="50" height="48" as="geometry" />
        </mxCell>
        <mxCell id="2azZoAqfirDOiCX57xzy-26" value="Postgres Deployment" style="swimlane;horizontal=0;" vertex="1" parent="kx3Ie3QOy20wnRRrD1VL-14">
          <mxGeometry x="500" y="130" width="180" height="160" as="geometry" />
        </mxCell>
        <mxCell id="2azZoAqfirDOiCX57xzy-25" value="Postgres DB" style="image;html=1;image=img/lib/clip_art/computers/Database_128x128.png" vertex="1" parent="2azZoAqfirDOiCX57xzy-26">
          <mxGeometry x="60" y="32" width="80" height="80" as="geometry" />
        </mxCell>
        <mxCell id="2azZoAqfirDOiCX57xzy-31" value="" style="endArrow=classic;html=1;rounded=0;entryX=0.5;entryY=1;entryDx=0;entryDy=0;exitX=0.5;exitY=1;exitDx=0;exitDy=0;" edge="1" parent="kx3Ie3QOy20wnRRrD1VL-14" source="2azZoAqfirDOiCX57xzy-5" target="2azZoAqfirDOiCX57xzy-26">
          <mxGeometry width="50" height="50" relative="1" as="geometry">
            <mxPoint x="360" y="100" as="sourcePoint" />
            <mxPoint x="410" y="50" as="targetPoint" />
            <Array as="points">
              <mxPoint x="145" y="310" />
              <mxPoint x="590" y="310" />
            </Array>
          </mxGeometry>
        </mxCell>
        <mxCell id="2azZoAqfirDOiCX57xzy-32" value="Database Access" style="edgeLabel;html=1;align=center;verticalAlign=middle;resizable=0;points=[];" vertex="1" connectable="0" parent="2azZoAqfirDOiCX57xzy-31">
          <mxGeometry x="0.2495" y="1" relative="1" as="geometry">
            <mxPoint x="-228" y="11" as="offset" />
          </mxGeometry>
        </mxCell>
        <mxCell id="2azZoAqfirDOiCX57xzy-1" value="" style="endArrow=classic;html=1;rounded=0;entryX=1;entryY=0.5;entryDx=0;entryDy=0;exitX=0.5;exitY=0;exitDx=0;exitDy=0;" edge="1" parent="1" source="kx3Ie3QOy20wnRRrD1VL-14" target="kx3Ie3QOy20wnRRrD1VL-2">
          <mxGeometry width="50" height="50" relative="1" as="geometry">
            <mxPoint x="440" y="390" as="sourcePoint" />
            <mxPoint x="370" y="100" as="targetPoint" />
            <Array as="points">
              <mxPoint x="405" y="113" />
            </Array>
          </mxGeometry>
        </mxCell>
        <mxCell id="2azZoAqfirDOiCX57xzy-2" value="&lt;div&gt;Pull&lt;br&gt;&lt;/div&gt;&lt;div&gt;container&lt;/div&gt;&lt;div&gt;images&lt;br&gt;&lt;/div&gt;" style="edgeLabel;html=1;align=center;verticalAlign=middle;resizable=0;points=[];" vertex="1" connectable="0" parent="2azZoAqfirDOiCX57xzy-1">
          <mxGeometry x="0.0259" y="-1" relative="1" as="geometry">
            <mxPoint x="36" y="-17" as="offset" />
          </mxGeometry>
        </mxCell>
        <mxCell id="2azZoAqfirDOiCX57xzy-17" value="HTTP" style="edgeStyle=orthogonalEdgeStyle;rounded=0;orthogonalLoop=1;jettySize=auto;html=1;exitX=0.005;exitY=0.63;exitDx=0;exitDy=0;exitPerimeter=0;" edge="1" parent="1" source="2azZoAqfirDOiCX57xzy-16">
          <mxGeometry x="-0.0042" y="10" relative="1" as="geometry">
            <mxPoint x="310" y="320" as="targetPoint" />
            <mxPoint as="offset" />
          </mxGeometry>
        </mxCell>
        <mxCell id="2azZoAqfirDOiCX57xzy-22" value="" style="endArrow=classic;html=1;rounded=0;entryX=0.995;entryY=0.63;entryDx=0;entryDy=0;entryPerimeter=0;exitX=0.472;exitY=1.01;exitDx=0;exitDy=0;exitPerimeter=0;" edge="1" parent="1" source="2azZoAqfirDOiCX57xzy-23" target="2azZoAqfirDOiCX57xzy-16">
          <mxGeometry width="50" height="50" relative="1" as="geometry">
            <mxPoint x="573.3040000000001" y="140" as="sourcePoint" />
            <mxPoint x="440" y="310" as="targetPoint" />
            <Array as="points">
              <mxPoint x="569" y="320" />
            </Array>
          </mxGeometry>
        </mxCell>
        <mxCell id="2azZoAqfirDOiCX57xzy-24" value="&lt;div&gt;HTTPS Traffic&lt;/div&gt;" style="edgeLabel;html=1;align=center;verticalAlign=middle;resizable=0;points=[];" vertex="1" connectable="0" parent="2azZoAqfirDOiCX57xzy-22">
          <mxGeometry x="0.3643" y="2" relative="1" as="geometry">
            <mxPoint y="8" as="offset" />
          </mxGeometry>
        </mxCell>
        <mxCell id="2azZoAqfirDOiCX57xzy-23" value="Web Browser" style="aspect=fixed;html=1;points=[];align=center;image;fontSize=12;image=img/lib/azure2/general/Browser.svg;" vertex="1" parent="1">
          <mxGeometry x="510" y="40" width="125" height="100" as="geometry" />
        </mxCell>
      </root>
    </mxGraphModel>
  </diagram>
</mxfile>
